<svg xmlns="http://www.w3.org/2000/svg" xml:space="preserve" id="Layer_1" style="enable-background:new 0 0 512 512" version="1.1" viewBox="0 0 512 512">
  <style>
    .st6{fill:#e6e7e8}
  </style>
  <path id="XMLID_16_" d="M489 255.9v-.7c0-1.6 0-3.2-.1-4.7 0-.9-.1-1.8-.1-2.8 0-.9-.1-1.8-.1-2.7-.1-1.1-.1-2.2-.2-3.3 0-.7-.1-1.4-.1-2.1l-.3-3.6c0-.5-.1-1.1-.1-1.6-.1-1.3-.3-2.6-.4-4 0-.3-.1-.7-.1-1C474.3 113.2 375.7 22.9 256 22.9S37.7 113.2 24.5 229.5c0 .3-.1.7-.1 1-.1 1.3-.3 2.6-.4 4-.1.5-.1 1.1-.1 1.6l-.3 3.6c0 .7-.1 1.4-.1 2.1-.1 1.1-.1 2.2-.2 3.3 0 .9-.1 1.8-.1 2.7 0 .9-.1 1.8-.1 2.8 0 1.6-.1 3.2-.1 4.7V256.9c0 1.6 0 3.2.1 4.7 0 .9.1 1.8.1 2.8 0 .9.1 1.8.1 2.7.1 1.1.1 2.2.2 3.3 0 .7.1 1.4.1 2.1l.3 3.6c0 .5.1 1.1.1 1.6.1 1.3.3 2.6.4 4 0 .3.1.7.1 1C37.7 398.8 136.3 489.1 256 489.1s218.3-90.3 231.5-206.5c0-.3.1-.7.1-1 .1-1.3.3-2.6.4-4 .1-.5.1-1.1.1-1.6l.3-3.6c0-.7.1-1.4.1-2.1.1-1.1.1-2.2.2-3.3 0-.9.1-1.8.1-2.7 0-.9.1-1.8.1-2.8 0-1.6.1-3.2.1-4.7V255.9c0 .1 0 .1 0 0z" style="fill:#2bb673"/>
  <circle id="XMLID_14_" cx="256" cy="256" r="159.5" style="fill:#fff"/>
  <path id="XMLID_11_" d="M183.5 151.7h145.1v208.7H183.5z" style="fill:#f1f2f2"/>
  <path id="XMLID_10_" d="M175 163.3h15V188h-15z" style="fill:#547dbf"/>
  <path id="XMLID_9_" d="M175 191.7h15v24.7h-15z" style="fill:#f9bc15"/>
  <path id="XMLID_6_" d="M175 219.7h15v24.7h-15z" style="fill:#33a851"/>
  <g id="XMLID_7_">
    <path id="XMLID_8_" d="M199.5 175.4h86.8v9.4h-86.8z" class="st6"/>
    <path id="XMLID_12_" d="M199.5 204.1h116.8v9.4H199.5z" class="st6"/>
    <path id="XMLID_15_" d="M199.5 234.4h116.8v9.4H199.5z" class="st6"/>
    <path id="XMLID_13_" d="M199.5 264.6h107.3v9.4H199.5z" class="st6"/>
    <path id="XMLID_24_" d="M199.5 298.4h86.8v9.4h-86.8z" class="st6"/>
    <path id="XMLID_5_" d="M199.5 327.2h116.8v9.4H199.5z" class="st6"/>
  </g>
</svg>
